<svg width="27" height="27" viewBox="0 0 27 27" fill="none" xmlns="http://www.w3.org/2000/svg">
<path d="M19.125 2.25H7.875C4.7684 2.25 2.25 4.7684 2.25 7.875V19.125C2.25 22.2316 4.7684 24.75 7.875 24.75H19.125C22.2316 24.75 24.75 22.2316 24.75 19.125V7.875C24.75 4.7684 22.2316 2.25 19.125 2.25Z" fill="white" stroke="white" stroke-width="2" stroke-linecap="round" stroke-linejoin="round"/>
<path d="M17.9999 12.7913C18.1388 13.7276 17.9788 14.6838 17.5429 15.524C17.107 16.3641 16.4172 17.0454 15.5717 17.471C14.7263 17.8965 13.7682 18.0446 12.8337 17.8943C11.8992 17.7439 11.0359 17.3027 10.3666 16.6334C9.69732 15.9641 9.25611 15.1008 9.10574 14.1663C8.95537 13.2318 9.10349 12.2737 9.52903 11.4283C9.95458 10.5828 10.6359 9.89305 11.476 9.45712C12.3162 9.02118 13.2724 8.86126 14.2087 9.0001C15.1637 9.14172 16.0479 9.58674 16.7306 10.2694C17.4133 10.9521 17.8583 11.8363 17.9999 12.7913Z" stroke="#0E0E0E" stroke-width="2" stroke-linecap="round" stroke-linejoin="round"/>
<path d="M19.6875 7.3125H19.6987" stroke="#0E0E0E" stroke-width="2" stroke-linecap="round" stroke-linejoin="round"/>
</svg>
