<svg width="27" height="27" viewBox="0 0 27 27" fill="none" xmlns="http://www.w3.org/2000/svg">
<path d="M25.875 3.37508C24.7977 4.13499 23.6049 4.71621 22.3425 5.09633C21.665 4.31728 20.7645 3.76511 19.7629 3.5145C18.7613 3.26389 17.7069 3.32693 16.7423 3.69509C15.7777 4.06326 14.9495 4.71878 14.3696 5.57301C13.7897 6.42724 13.4862 7.43896 13.5 8.47133V9.59633C11.523 9.6476 9.56393 9.20912 7.79738 8.31996C6.03084 7.4308 4.51161 6.11855 3.375 4.50008C3.375 4.50008 -1.125 14.6251 9 19.1251C6.68309 20.6978 3.92305 21.4864 1.125 21.3751C11.25 27.0001 23.625 21.3751 23.625 8.43758C23.624 8.12422 23.5938 7.81163 23.535 7.50383C24.6832 6.37151 25.4934 4.94188 25.875 3.37508V3.37508Z" fill="white" stroke="white" stroke-width="2" stroke-linecap="round" stroke-linejoin="round"/>
</svg>
