<svg width="18" height="18" viewBox="0 0 18 18" fill="none" xmlns="http://www.w3.org/2000/svg">
<path d="M12.75 1.5H5.25C3.17893 1.5 1.5 3.17893 1.5 5.25V12.75C1.5 14.8211 3.17893 16.5 5.25 16.5H12.75C14.8211 16.5 16.5 14.8211 16.5 12.75V5.25C16.5 3.17893 14.8211 1.5 12.75 1.5Z" fill="white" stroke="white" stroke-width="2" stroke-linecap="round" stroke-linejoin="round"/>
<path d="M12 8.52773C12.0926 9.15191 11.986 9.78939 11.6953 10.3495C11.4047 10.9096 10.9449 11.3638 10.3812 11.6475C9.8176 11.9312 9.17886 12.0299 8.55586 11.9297C7.93287 11.8294 7.35734 11.5353 6.91115 11.0891C6.46496 10.6429 6.17082 10.0674 6.07058 9.44439C5.97033 8.82139 6.06907 8.18265 6.35277 7.61901C6.63647 7.05537 7.09066 6.59553 7.65076 6.30491C8.21086 6.01428 8.84834 5.90767 9.47252 6.00023C10.1092 6.09464 10.6987 6.39132 11.1538 6.84646C11.6089 7.30159 11.9056 7.89103 12 8.52773Z" stroke="#0E0E0E" stroke-width="2" stroke-linecap="round" stroke-linejoin="round"/>
<path d="M13.125 4.875H13.1325" stroke="#0E0E0E" stroke-width="2" stroke-linecap="round" stroke-linejoin="round"/>
</svg>
