<svg width="18" height="18" viewBox="0 0 18 18" fill="none" xmlns="http://www.w3.org/2000/svg">
<g clip-path="url(#clip0_17_981)">
<path d="M17.25 2.25022C16.5318 2.75683 15.7366 3.1443 14.895 3.39772C14.4433 2.87835 13.843 2.51024 13.1753 2.34316C12.5076 2.17609 11.8046 2.21811 11.1616 2.46356C10.5185 2.709 9.96633 3.14602 9.57974 3.71551C9.19314 4.28499 8.99077 4.95947 9 5.64772V6.39772C7.68198 6.43189 6.37596 6.13958 5.19826 5.5468C4.02056 4.95403 3.00774 4.07919 2.25 3.00022C2.25 3.00022 -0.75 9.75022 6 12.7502C4.4554 13.7987 2.61537 14.3244 0.75 14.2502C7.5 18.0002 15.75 14.2502 15.75 5.62522C15.7493 5.41631 15.7292 5.20791 15.69 5.00272C16.4555 4.24784 16.9956 3.29475 17.25 2.25022Z" fill="white" stroke="white" stroke-width="2" stroke-linecap="round" stroke-linejoin="round"/>
</g>
<defs>
<clipPath id="clip0_17_981">
<rect width="18" height="18" fill="white"/>
</clipPath>
</defs>
</svg>
