<svg width="100" height="28" viewBox="0 0 100 28" fill="none" xmlns="http://www.w3.org/2000/svg">
<path fill-rule="evenodd" clip-rule="evenodd" d="M0 27.9785H9.51315C18.5067 27.9785 25.0384 24.1818 25.0384 13.9892C25.0384 3.79663 18.5067 0 9.51315 0L0 0L0 27.9785ZM7.27648 21.4631L7.27648 6.51533L9.59055 6.51533C14.7031 6.51533 17.8358 8.43249 17.8358 13.9892C17.8358 19.5447 14.7031 21.4631 9.59055 21.4631H7.27648ZM29.2537 27.9785L49.0682 27.9785L49.0682 21.7031H36.5302V16.9479H48.9556V10.9514L36.5302 10.9514V6.27411L49.0682 6.27411V0L29.2537 0L29.2537 27.9785ZM54.2546 27.9785H61.5287L61.5287 18.8651H65.8589C72.3871 18.8651 76.7549 15.9077 76.7549 9.43253C76.7549 2.9574 72.3871 0 65.8589 0L54.2546 0L54.2546 27.9785ZM61.5287 12.8284V6.03667L65.7088 6.03667C68.3947 6.03667 69.7013 7.195 69.7013 9.43253C69.7013 11.6713 68.3947 12.8284 65.7088 12.8284H61.5287ZM85.4858 27.9785H92.7599V6.55553L100 6.55553V0L78.2468 0V6.55553L85.4858 6.55553V27.9785Z" fill="white"/>
</svg>
