
<svg width="53" height="15" viewBox="0 0 53 15" fill="none" xmlns="http://www.w3.org/2000/svg">
<g clip-path="url(#clip0_35_62)">
<path d="M13.4751 7.34129C13.4751 3.61908 11.4431 0.751465 6.27754 0.751465H0.751221V13.9311H6.27754C11.4431 13.9311 13.4751 11.0635 13.4751 7.34129ZM9.71489 7.34129C9.71489 9.94303 8.2526 10.9116 6.22061 10.9116H4.34049V3.77101H6.22061C8.2526 3.77101 9.71489 4.73954 9.71489 7.34129Z" fill="white"/>
<path d="M14.3347 13.9311H24.7797V10.9306H17.924V8.67068H23.9441V5.82201H17.924V3.75202H24.6088V0.751465H14.3347V13.9311Z" fill="white"/>
<path d="M36.9384 5.32827C36.9384 2.00486 34.8114 0.751465 31.507 0.751465H25.7908V13.9311H29.38V9.90508H31.507C34.8114 9.90508 36.9384 8.65165 36.9384 5.32827ZM33.2162 5.32827C33.2162 6.61965 32.6085 7.1514 31.1462 7.1514H29.38V3.50514H31.1462C32.6085 3.50514 33.2162 4.03688 33.2162 5.32827Z" fill="white"/>
<path d="M37.3301 3.82798H41.489V13.9311H45.0783V3.82798H49.2373V0.751465H37.3301V3.82798Z" fill="white"/>
<path d="M47.7458 12.0856C47.7458 13.2783 48.7113 14.2438 49.9042 14.2438C51.0968 14.2438 52.0719 13.2783 52.0719 12.0856C52.0719 10.8929 51.0968 9.91797 49.9042 9.91797C48.7113 9.91797 47.7458 10.8929 47.7458 12.0856ZM48.1623 12.0856C48.1623 11.1012 48.9385 10.2966 49.9042 10.2966C50.8694 10.2966 51.6552 11.1012 51.6552 12.0856C51.6552 13.07 50.8694 13.8652 49.9042 13.8652C48.9385 13.8652 48.1623 13.07 48.1623 12.0856ZM48.8912 13.1553H49.5725V12.4169H49.961L50.3678 13.1553H51.1061L50.6139 12.2844C50.8412 12.1898 51.0113 11.9342 51.0113 11.6502C51.0113 11.1485 50.6895 10.9119 50.1404 10.9119H48.8912V13.1553ZM50.3203 11.6596C50.3203 11.8395 50.2071 11.9153 49.9892 11.9153H49.5725V11.4419H49.9892C50.2071 11.4419 50.3203 11.4988 50.3203 11.6596Z" fill="white"/>
</g>
<defs>
<clipPath id="clip0_35_62">
<rect width="52.8237" height="15" fill="white"/>
</clipPath>
</defs>
</svg>